<?xml version="1.0" encoding="UTF-8" standalone="no" ?>
<!DOCTYPE svg PUBLIC "-//W3C//DTD SVG 1.1//EN" "http://www.w3.org/Graphics/SVG/1.1/DTD/svg11.dtd">
<svg xmlns="http://www.w3.org/2000/svg" xmlns:xlink="http://www.w3.org/1999/xlink" version="1.1" width="1080" height="1080" viewBox="0 0 1080 1080" xml:space="preserve">
<desc>Created with Fabric.js 5.2.4</desc>
<defs>
</defs>
<g transform="matrix(1 0 0 1 540 540)" id="30d8e990-aa15-4f2c-8a6c-0bf6b7c7b8f0"  >
<rect style="stroke: none; stroke-width: 1; stroke-dasharray: none; stroke-linecap: butt; stroke-dashoffset: 0; stroke-linejoin: miter; stroke-miterlimit: 4; fill: rgb(255,255,255); fill-rule: nonzero; opacity: 1; visibility: hidden;" vector-effect="non-scaling-stroke"  x="-540" y="-540" rx="0" ry="0" width="1080" height="1080" />
</g>
<g transform="matrix(1 0 0 1 540 540)" id="084c8256-5ae0-4127-8c21-f0225b72a6f4"  >
</g>
<g transform="matrix(1 0 0 1 540 560.16)"  >
<g style="" vector-effect="non-scaling-stroke"   >
		<g transform="matrix(1 0 0 1 49.75 -37.86)"  >
<path style="stroke: rgb(138,138,255); stroke-width: 0.716567; stroke-dasharray: none; stroke-linecap: butt; stroke-dashoffset: 0; stroke-linejoin: miter; stroke-miterlimit: 4; fill: none; fill-rule: nonzero; opacity: 1;" vector-effect="non-scaling-stroke"  transform=" translate(-900, -501.5)" d="M 861.5 483.5 L 938.5 519.5" stroke-linecap="round" />
</g>
		<g transform="matrix(1 0 0 1 -27.25 -63.61)"  >
<path style="stroke: rgb(255,56,56); stroke-width: 1.21551; stroke-dasharray: none; stroke-linecap: butt; stroke-dashoffset: 0; stroke-linejoin: miter; stroke-miterlimit: 4; fill: none; fill-rule: nonzero; opacity: 1;" vector-effect="non-scaling-stroke"  transform=" translate(-823, -475.75)" d="M 784.5 432 L 861.5 519.5" stroke-linecap="round" />
</g>
		<g transform="matrix(1 0 0 1 -27.25 -46.11)"  >
<path style="stroke: rgb(255,158,158); stroke-width: 0.591647; stroke-dasharray: none; stroke-linecap: butt; stroke-dashoffset: 0; stroke-linejoin: miter; stroke-miterlimit: 4; fill: none; fill-rule: nonzero; opacity: 1;" vector-effect="non-scaling-stroke"  transform=" translate(-823, -493.25)" d="M 784.5 467 L 861.5 519.5" stroke-linecap="round" />
</g>
		<g transform="matrix(1 0 0 1 -27.25 -28.61)"  >
<path style="stroke: rgb(156,156,255); stroke-width: 0.608304; stroke-dasharray: none; stroke-linecap: butt; stroke-dashoffset: 0; stroke-linejoin: miter; stroke-miterlimit: 4; fill: none; fill-rule: nonzero; opacity: 1;" vector-effect="non-scaling-stroke"  transform=" translate(-823, -510.75)" d="M 784.5 502 L 861.5 519.5" stroke-linecap="round" />
</g>
		<g transform="matrix(1 0 0 1 -27.25 -11.11)"  >
<path style="stroke: rgb(255,246,246); stroke-width: 0.0534455; stroke-dasharray: none; stroke-linecap: butt; stroke-dashoffset: 0; stroke-linejoin: miter; stroke-miterlimit: 4; fill: none; fill-rule: nonzero; opacity: 1;" vector-effect="non-scaling-stroke"  transform=" translate(-823, -528.25)" d="M 784.5 537 L 861.5 519.5" stroke-linecap="round" />
</g>
		<g transform="matrix(1 0 0 1 -27.25 6.39)"  >
<path style="stroke: rgb(54,54,255); stroke-width: 1.23176; stroke-dasharray: none; stroke-linecap: butt; stroke-dashoffset: 0; stroke-linejoin: miter; stroke-miterlimit: 4; fill: none; fill-rule: nonzero; opacity: 1;" vector-effect="non-scaling-stroke"  transform=" translate(-823, -545.75)" d="M 784.5 572 L 861.5 519.5" stroke-linecap="round" />
</g>
		<g transform="matrix(1 0 0 1 -27.25 23.89)"  >
<path style="stroke: rgb(247,247,255); stroke-width: 0.0488643; stroke-dasharray: none; stroke-linecap: butt; stroke-dashoffset: 0; stroke-linejoin: miter; stroke-miterlimit: 4; fill: none; fill-rule: nonzero; opacity: 1;" vector-effect="non-scaling-stroke"  transform=" translate(-823, -563.25)" d="M 784.5 607 L 861.5 519.5" stroke-linecap="round" />
</g>
		<g transform="matrix(1 0 0 1 49.75 -19.86)"  >
<path style="stroke: rgb(255,54,54); stroke-width: 1.22734; stroke-dasharray: none; stroke-linecap: butt; stroke-dashoffset: 0; stroke-linejoin: miter; stroke-miterlimit: 4; fill: none; fill-rule: nonzero; opacity: 1;" vector-effect="non-scaling-stroke"  transform=" translate(-900, -519.5)" d="M 861.5 519.5 L 938.5 519.5" stroke-linecap="round" />
</g>
		<g transform="matrix(1 0 0 1 -27.25 -45.61)"  >
<path style="stroke: rgb(26,26,255); stroke-width: 1.40133; stroke-dasharray: none; stroke-linecap: butt; stroke-dashoffset: 0; stroke-linejoin: miter; stroke-miterlimit: 4; fill: none; fill-rule: nonzero; opacity: 1;" vector-effect="non-scaling-stroke"  transform=" translate(-823, -493.75)" d="M 784.5 432 L 861.5 555.5" stroke-linecap="round" />
</g>
		<g transform="matrix(1 0 0 1 -27.25 -28.11)"  >
<path style="stroke: rgb(244,244,255); stroke-width: 0.0649167; stroke-dasharray: none; stroke-linecap: butt; stroke-dashoffset: 0; stroke-linejoin: miter; stroke-miterlimit: 4; fill: none; fill-rule: nonzero; opacity: 1;" vector-effect="non-scaling-stroke"  transform=" translate(-823, -511.25)" d="M 784.5 467 L 861.5 555.5" stroke-linecap="round" />
</g>
		<g transform="matrix(1 0 0 1 -27.25 -10.61)"  >
<path style="stroke: rgb(231,231,255); stroke-width: 0.149216; stroke-dasharray: none; stroke-linecap: butt; stroke-dashoffset: 0; stroke-linejoin: miter; stroke-miterlimit: 4; fill: none; fill-rule: nonzero; opacity: 1;" vector-effect="non-scaling-stroke"  transform=" translate(-823, -528.75)" d="M 784.5 502 L 861.5 555.5" stroke-linecap="round" />
</g>
		<g transform="matrix(1 0 0 1 -27.25 6.89)"  >
<path style="stroke: rgb(255,170,170); stroke-width: 0.520378; stroke-dasharray: none; stroke-linecap: butt; stroke-dashoffset: 0; stroke-linejoin: miter; stroke-miterlimit: 4; fill: none; fill-rule: nonzero; opacity: 1;" vector-effect="non-scaling-stroke"  transform=" translate(-823, -546.25)" d="M 784.5 537 L 861.5 555.5" stroke-linecap="round" />
</g>
		<g transform="matrix(1 0 0 1 -27.25 24.39)"  >
<path style="stroke: rgb(144,144,255); stroke-width: 0.681172; stroke-dasharray: none; stroke-linecap: butt; stroke-dashoffset: 0; stroke-linejoin: miter; stroke-miterlimit: 4; fill: none; fill-rule: nonzero; opacity: 1;" vector-effect="non-scaling-stroke"  transform=" translate(-823, -563.75)" d="M 784.5 572 L 861.5 555.5" stroke-linecap="round" />
</g>
		<g transform="matrix(1 0 0 1 -27.25 41.89)"  >
<path style="stroke: rgb(255,214,214); stroke-width: 0.249183; stroke-dasharray: none; stroke-linecap: butt; stroke-dashoffset: 0; stroke-linejoin: miter; stroke-miterlimit: 4; fill: none; fill-rule: nonzero; opacity: 1;" vector-effect="non-scaling-stroke"  transform=" translate(-823, -581.25)" d="M 784.5 607 L 861.5 555.5" stroke-linecap="round" />
</g>
		<g transform="matrix(1 0 0 1 49.75 -1.86)"  >
<path style="stroke: rgb(255,110,110); stroke-width: 0.885574; stroke-dasharray: none; stroke-linecap: butt; stroke-dashoffset: 0; stroke-linejoin: miter; stroke-miterlimit: 4; fill: none; fill-rule: nonzero; opacity: 1;" vector-effect="non-scaling-stroke"  transform=" translate(-900, -537.5)" d="M 861.5 555.5 L 938.5 519.5" stroke-linecap="round" />
</g>
		<g transform="matrix(1 0 0 1 -27.25 -81.61)"  >
<path style="stroke: rgb(163,163,255); stroke-width: 0.565373; stroke-dasharray: none; stroke-linecap: butt; stroke-dashoffset: 0; stroke-linejoin: miter; stroke-miterlimit: 4; fill: none; fill-rule: nonzero; opacity: 1;" vector-effect="non-scaling-stroke"  transform=" translate(-823, -457.75)" d="M 784.5 432 L 861.5 483.5" stroke-linecap="round" />
</g>
		<g transform="matrix(1 0 0 1 -27.25 -64.11)"  >
<path style="stroke: rgb(255,169,169); stroke-width: 0.526444; stroke-dasharray: none; stroke-linecap: butt; stroke-dashoffset: 0; stroke-linejoin: miter; stroke-miterlimit: 4; fill: none; fill-rule: nonzero; opacity: 1;" vector-effect="non-scaling-stroke"  transform=" translate(-823, -475.25)" d="M 784.5 467 L 861.5 483.5" stroke-linecap="round" />
</g>
		<g transform="matrix(1 0 0 1 -27.25 -46.61)"  >
<path style="stroke: rgb(78,78,255); stroke-width: 1.08463; stroke-dasharray: none; stroke-linecap: butt; stroke-dashoffset: 0; stroke-linejoin: miter; stroke-miterlimit: 4; fill: none; fill-rule: nonzero; opacity: 1;" vector-effect="non-scaling-stroke"  transform=" translate(-823, -492.75)" d="M 784.5 502 L 861.5 483.5" stroke-linecap="round" />
</g>
		<g transform="matrix(1 0 0 1 -27.25 -29.11)"  >
<path style="stroke: rgb(255,11,11); stroke-width: 1.49083; stroke-dasharray: none; stroke-linecap: butt; stroke-dashoffset: 0; stroke-linejoin: miter; stroke-miterlimit: 4; fill: none; fill-rule: nonzero; opacity: 1;" vector-effect="non-scaling-stroke"  transform=" translate(-823, -510.25)" d="M 784.5 537 L 861.5 483.5" stroke-linecap="round" />
</g>
		<g transform="matrix(1 0 0 1 -27.25 -11.61)"  >
<path style="stroke: rgb(255,145,145); stroke-width: 0.675513; stroke-dasharray: none; stroke-linecap: butt; stroke-dashoffset: 0; stroke-linejoin: miter; stroke-miterlimit: 4; fill: none; fill-rule: nonzero; opacity: 1;" vector-effect="non-scaling-stroke"  transform=" translate(-823, -527.75)" d="M 784.5 572 L 861.5 483.5" stroke-linecap="round" />
</g>
		<g transform="matrix(1 0 0 1 -27.25 5.89)"  >
<path style="stroke: rgb(90,90,255); stroke-width: 1.00675; stroke-dasharray: none; stroke-linecap: butt; stroke-dashoffset: 0; stroke-linejoin: miter; stroke-miterlimit: 4; fill: none; fill-rule: nonzero; opacity: 1;" vector-effect="non-scaling-stroke"  transform=" translate(-823, -545.25)" d="M 784.5 607 L 861.5 483.5" stroke-linecap="round" />
</g>
		<g transform="matrix(1 0 0 1 -65.75 -107.36)" id="0_0"  >
<circle style="stroke: rgb(5,6,7); stroke-width: 1; stroke-dasharray: none; stroke-linecap: butt; stroke-dashoffset: 0; stroke-linejoin: miter; stroke-miterlimit: 4; fill: rgb(253,253,253); fill-rule: nonzero; opacity: 1;" vector-effect="non-scaling-stroke"  cx="0" cy="0" r="12.5" />
</g>
		<g transform="matrix(1 0 0 1 -65.75 -72.36)" id="0_1"  >
<circle style="stroke: rgb(5,6,7); stroke-width: 1; stroke-dasharray: none; stroke-linecap: butt; stroke-dashoffset: 0; stroke-linejoin: miter; stroke-miterlimit: 4; fill: rgb(253,253,253); fill-rule: nonzero; opacity: 1;" vector-effect="non-scaling-stroke"  cx="0" cy="0" r="12.5" />
</g>
		<g transform="matrix(1 0 0 1 -65.75 -37.36)" id="0_2"  >
<circle style="stroke: rgb(5,6,7); stroke-width: 1; stroke-dasharray: none; stroke-linecap: butt; stroke-dashoffset: 0; stroke-linejoin: miter; stroke-miterlimit: 4; fill: rgb(253,253,253); fill-rule: nonzero; opacity: 1;" vector-effect="non-scaling-stroke"  cx="0" cy="0" r="12.5" />
</g>
		<g transform="matrix(1 0 0 1 -65.75 -2.36)" id="0_3"  >
<circle style="stroke: rgb(5,6,7); stroke-width: 1; stroke-dasharray: none; stroke-linecap: butt; stroke-dashoffset: 0; stroke-linejoin: miter; stroke-miterlimit: 4; fill: rgb(253,253,253); fill-rule: nonzero; opacity: 1;" vector-effect="non-scaling-stroke"  cx="0" cy="0" r="12.5" />
</g>
		<g transform="matrix(1 0 0 1 -65.75 32.64)" id="0_4"  >
<circle style="stroke: rgb(5,6,7); stroke-width: 1; stroke-dasharray: none; stroke-linecap: butt; stroke-dashoffset: 0; stroke-linejoin: miter; stroke-miterlimit: 4; fill: rgb(253,253,253); fill-rule: nonzero; opacity: 1;" vector-effect="non-scaling-stroke"  cx="0" cy="0" r="12.5" />
</g>
		<g transform="matrix(1 0 0 1 -65.75 67.64)" id="0_5"  >
<circle style="stroke: rgb(5,6,7); stroke-width: 1; stroke-dasharray: none; stroke-linecap: butt; stroke-dashoffset: 0; stroke-linejoin: miter; stroke-miterlimit: 4; fill: rgb(253,253,253); fill-rule: nonzero; opacity: 1;" vector-effect="non-scaling-stroke"  cx="0" cy="0" r="12.5" />
</g>
		<g transform="matrix(1 0 0 1 11.25 -55.86)" id="1_0"  >
<circle style="stroke: rgb(5,6,7); stroke-width: 1; stroke-dasharray: none; stroke-linecap: butt; stroke-dashoffset: 0; stroke-linejoin: miter; stroke-miterlimit: 4; fill: rgb(253,253,253); fill-rule: nonzero; opacity: 1;" vector-effect="non-scaling-stroke"  cx="0" cy="0" r="12.5" />
</g>
		<g transform="matrix(1 0 0 1 11.25 -19.86)" id="1_1"  >
<circle style="stroke: rgb(5,6,7); stroke-width: 1; stroke-dasharray: none; stroke-linecap: butt; stroke-dashoffset: 0; stroke-linejoin: miter; stroke-miterlimit: 4; fill: rgb(253,253,253); fill-rule: nonzero; opacity: 1;" vector-effect="non-scaling-stroke"  cx="0" cy="0" r="12.5" />
</g>
		<g transform="matrix(1 0 0 1 11.25 16.14)" id="1_2"  >
<circle style="stroke: rgb(5,6,7); stroke-width: 1; stroke-dasharray: none; stroke-linecap: butt; stroke-dashoffset: 0; stroke-linejoin: miter; stroke-miterlimit: 4; fill: rgb(253,253,253); fill-rule: nonzero; opacity: 1;" vector-effect="non-scaling-stroke"  cx="0" cy="0" r="12.5" />
</g>
		<g transform="matrix(1 0 0 1 88.25 -19.86)" id="2_0"  >
<circle style="stroke: rgb(5,6,7); stroke-width: 1; stroke-dasharray: none; stroke-linecap: butt; stroke-dashoffset: 0; stroke-linejoin: miter; stroke-miterlimit: 4; fill: rgb(253,253,253); fill-rule: nonzero; opacity: 1;" vector-effect="non-scaling-stroke"  cx="0" cy="0" r="12.5" />
</g>
		<g transform="matrix(1 0 0 1 -99.75 113.08)" style=""  >
		<text xml:space="preserve" font-family="Times New Roman" font-size="12" font-style="normal" font-weight="normal" style="stroke: none; stroke-width: 1; stroke-dasharray: none; stroke-linecap: butt; stroke-dashoffset: 0; stroke-linejoin: miter; stroke-miterlimit: 4; fill: rgb(0,0,0); fill-rule: nonzero; opacity: 1; white-space: pre;" ></text>
</g>
		<g transform="matrix(1 0 0 1 -22.75 113.08)" style=""  >
		<text xml:space="preserve" font-family="Times New Roman" font-size="12" font-style="normal" font-weight="normal" style="stroke: none; stroke-width: 1; stroke-dasharray: none; stroke-linecap: butt; stroke-dashoffset: 0; stroke-linejoin: miter; stroke-miterlimit: 4; fill: rgb(0,0,0); fill-rule: nonzero; opacity: 1; white-space: pre;" ></text>
</g>
		<g transform="matrix(1 0 0 1 54.25 113.08)" style=""  >
		<text xml:space="preserve" font-family="Times New Roman" font-size="12" font-style="normal" font-weight="normal" style="stroke: none; stroke-width: 1; stroke-dasharray: none; stroke-linecap: butt; stroke-dashoffset: 0; stroke-linejoin: miter; stroke-miterlimit: 4; fill: rgb(0,0,0); fill-rule: nonzero; opacity: 1; white-space: pre;" ></text>
</g>
</g>
</g>
</svg>